<svg width="128" height="128" xmlns="http://www.w3.org/2000/svg">
 <g>
  <title>background</title>
  <rect fill="none" id="canvas_background" height="130" width="130" y="-1" x="-1"/>
 </g>

 <g>
  <title>Layer 1</title>
  <path id="svg_1" d="m0.26551,64.000526c0,-34.405096 28.48288,-62.042196 63.734158,-62.042196c35.251125,0 63.734135,27.6371 63.734135,62.042196s-28.483009,62.042091 -63.734135,62.042091c-35.251278,0 -63.734158,-27.637115 -63.734158,-62.042091zm62.324029,21.15065c-6.204117,0 -11.280399,-0.563866 -14.66431,-1.128098c-3.948257,-0.845825 -6.486408,-3.102036 -8.178349,-6.204025c-1.41011,-3.102036 -2.256191,-8.178352 -1.97403,-14.946663c0,-3.665901 0.28196,-7.05024 0.563919,-10.434219c0.563892,-3.384312 0.84621,-6.204403 1.41011,-8.460262l0.563889,-2.256229l0,-0.281948c0,-0.563881 -0.563889,-1.12812 -1.127789,-1.12812l-8.178379,-1.128101l-0.281961,0c-0.564119,0 -1.128038,0.56422 -1.409979,0.84618c0,0.56385 -0.28231,0.846142 -0.56427,1.973942c-0.5639,2.53812 -0.84586,4.794369 -1.41011,7.896389c-0.56377,3.38398 -0.84573,7.050228 -0.84573,10.99844c0,0 -0.28232,0.845821 0,7.614143s1.409981,12.126503 3.66597,16.356613c2.256092,3.948219 5.922031,7.05024 11.2803,8.742241c5.358261,1.692009 12.690529,2.538139 21.996948,2.538139l1.128151,0c9.306061,0 16.638199,-0.84613 21.996445,-2.538139c5.358284,-1.692001 9.02459,-4.794022 11.280449,-8.742241c2.256187,-4.23011 3.384369,-9.58831 3.666298,-16.356613s0,-7.614143 0,-7.614143c0,-3.948212 -0.564278,-7.61446 -0.846214,-10.99844c-0.563896,-3.383991 -0.845856,-5.640202 -1.410103,-7.896389c-0.281944,-1.127781 -0.281944,-1.692001 -0.563904,-1.973942c0,-0.563889 -0.56414,-0.84618 -1.409981,-0.84618l-0.28196,0l-8.178238,1.128101c-0.564384,0 -1.128151,0.56422 -1.128151,1.12812l0,0.281948l0.563766,2.256229c0.564384,2.255859 0.846214,5.075951 1.410103,8.460262s0.564262,6.768318 0.564262,10.434219c0,6.768311 -0.564262,11.562332 -1.974365,14.946663c-1.409981,3.10199 -4.230095,5.3582 -8.178017,6.204025" fill="#ff6e00"/>
 </g>
</svg>