<svg width="128" height="128" xmlns="http://www.w3.org/2000/svg">
 <g>
  <title>background</title>
  <rect x="-1" y="-1" width="130" height="130" id="canvas_background" fill="none"/>
 </g>

 <g>
  <title>Layer 1</title>
  <path fill="#00bec1" d="m0.265507,64.000526c0,-34.405098 28.482881,-62.042194 63.734165,-62.042194c35.251122,0 63.734131,27.637096 63.734131,62.042194s-28.483009,62.042091 -63.734131,62.042091c-35.251284,0 -63.734165,-27.637115 -63.734165,-62.042091zm62.324028,21.15065c-6.204117,0 -11.280399,-0.563866 -14.664303,-1.128098c-3.948261,-0.845833 -6.486412,-3.102043 -8.178352,-6.204033c-1.41011,-3.102028 -2.256191,-8.178345 -1.97403,-14.946659c0,-3.665897 0.28196,-7.05024 0.563919,-10.434216c0.563896,-3.384312 0.846214,-6.204403 1.41011,-8.460262l0.563892,-2.256226l0,-0.281952c0,-0.563881 -0.563892,-1.128124 -1.127789,-1.128124l-8.178377,-1.128098l-0.28196,0c-0.564125,0 -1.128044,0.56422 -1.409981,0.84618c0,0.56385 -0.282318,0.846142 -0.564278,1.973938c-0.563894,2.538128 -0.845854,4.794369 -1.410107,7.896389c-0.563768,3.383984 -0.845728,7.050232 -0.845728,10.99844c0,0 -0.282318,0.845829 0,7.614147s1.409981,12.126511 3.665968,16.356613c2.25609,3.948227 5.922029,7.05024 11.280298,8.742249c5.358265,1.692001 12.690533,2.538139 21.996956,2.538139l1.128143,0c9.306068,0 16.638206,-0.846138 21.996445,-2.538139c5.358292,-1.692009 9.02459,-4.794022 11.280449,-8.742249c2.256195,-4.230103 3.384369,-9.588303 3.666298,-16.356613s0,-7.614147 0,-7.614147c0,-3.948208 -0.564278,-7.614456 -0.846207,-10.99844c-0.563896,-3.383984 -0.845856,-5.640194 -1.41011,-7.896389c-0.281937,-1.127777 -0.281937,-1.691994 -0.563896,-1.973938c0,-0.563892 -0.564148,-0.84618 -1.409981,-0.84618l-0.28196,0l-8.178246,1.128098c-0.564377,0 -1.128151,0.564224 -1.128151,1.128124l0,0.281952l0.563774,2.256226c0.564377,2.255859 0.846207,5.075951 1.410095,8.460262s0.564262,6.768318 0.564262,10.434216c0,6.768314 -0.564262,11.562336 -1.974358,14.946659c-1.409981,3.10199 -4.230095,5.3582 -8.178024,6.204033" id="svg_1"/>
 </g>
</svg>