<svg width="32" height="32" xmlns="http://www.w3.org/2000/svg">
 <g>
  <title>background</title>
  <rect x="-1" y="-1" width="34" height="34" id="canvas_background" fill="none"/>
 </g>

 <g>
  <title>Layer 1</title>
  <path fill="#00bec1" d="m0.043036,16.000706c0,-8.612965 7.130398,-15.531632 15.955195,-15.531632c8.824759,0 15.955192,6.918666 15.955192,15.531632s-7.130432,15.531605 -15.955192,15.531605c-8.824796,0 -15.955195,-6.918673 -15.955195,-15.531605zm15.602184,5.294849c-1.553139,0 -2.823933,-0.141159 -3.671061,-0.28241c-0.988406,-0.211744 -1.623806,-0.776562 -2.047366,-1.553114c-0.353007,-0.77656 -0.564816,-2.047369 -0.494179,-3.741744c0,-0.917722 0.070585,-1.764956 0.141171,-2.612102c0.141166,-0.847228 0.211843,-1.55321 0.353007,-2.11794l0.141164,-0.564824l0,-0.070584c0,-0.141161 -0.141164,-0.282413 -0.28233,-0.282413l-2.047375,-0.282409l-0.070586,0c-0.141221,0 -0.282393,0.141246 -0.352973,0.211832c0,0.141154 -0.070673,0.211823 -0.14126,0.494157c-0.141166,0.635392 -0.211752,1.200222 -0.353006,1.976781c-0.141135,0.847145 -0.21172,1.764953 -0.21172,2.753348c0,0 -0.070676,0.211742 0,1.906122s0.352974,3.035744 0.917738,4.094709c0.56479,0.988396 1.482519,1.764956 2.823908,2.18853c1.341386,0.423576 3.176945,0.635397 5.506713,0.635397l0.282419,0c2.329676,0 4.165199,-0.211821 5.506586,-0.635397c1.341393,-0.423574 2.259211,-1.200134 2.823946,-2.18853c0.564814,-1.058966 0.84724,-2.400333 0.917818,-4.094709s0,-1.906122 0,-1.906122c0,-0.988397 -0.14126,-1.906203 -0.211838,-2.753348c-0.141169,-0.847147 -0.211754,-1.411966 -0.353006,-1.976781c-0.070581,-0.28233 -0.070581,-0.423575 -0.141167,-0.494157c0,-0.141162 -0.141226,-0.211832 -0.352976,-0.211832l-0.070585,0l-2.047338,0.282409c-0.141287,0 -0.282421,0.141247 -0.282421,0.282413l0,0.070584l0.141134,0.564824c0.141287,0.56473 0.211842,1.270712 0.353004,2.11794s0.141253,1.694379 0.141253,2.612102c0,1.694375 -0.141253,2.894511 -0.494259,3.741744c-0.352976,0.776552 -1.058962,1.34137 -2.047281,1.553114" id="svg_1"/>
 </g>
</svg>