<svg width="64" height="64" xmlns="http://www.w3.org/2000/svg">
 <g>
  <title>background</title>
  <rect x="-1" y="-1" width="9.999945" height="9.999945" id="canvas_background" fill="none"/>
 </g>

 <g>
  <title>Layer 1</title>
  <path fill="#ff6e00" d="m0.265568,32.849491c0,-17.130856 14.182086,-30.891813 31.734268,-30.891813c17.552105,0 31.734257,13.76096 31.734257,30.891813s-14.182152,30.891758 -31.734257,30.891758c-17.552181,0 -31.734268,-13.760963 -31.734268,-30.891758zm31.032141,10.53125c-3.08913,0 -5.616692,-0.280758 -7.301598,-0.561699c-1.9659,-0.42115 -3.229687,-1.544552 -4.072132,-3.089085c-0.702116,-1.544552 -1.123394,-4.072132 -0.982901,-7.442184c0,-1.825312 0.140392,-3.510427 0.280785,-5.195366c0.280771,-1.685104 0.421343,-3.089273 0.702116,-4.212502l0.280769,-1.123413l0,-0.140388c0,-0.280766 -0.280769,-0.561708 -0.561543,-0.561708l-4.072148,-0.561699l-0.140392,0c-0.280885,0 -0.561669,0.280931 -0.702052,0.421326c0,0.28075 -0.140567,0.421309 -0.280959,0.982859c-0.280774,1.263771 -0.421165,2.387194 -0.702116,3.93174c-0.280711,1.684938 -0.421103,3.510422 -0.421103,5.476301c0,0 -0.140574,0.421148 0,3.791204s0.702052,6.037983 1.825345,8.144222c1.123344,1.965881 2.948675,3.510429 5.616644,4.352901c2.667965,0.84248 6.318819,1.263783 10.952637,1.263783l0.561724,0c4.633636,0 8.284428,-0.421303 10.952385,-1.263783c2.667976,-0.842472 4.493488,-2.38702 5.616718,-4.352901c1.123394,-2.106239 1.685131,-4.774174 1.825508,-8.144222s0,-3.791204 0,-3.791204c0,-1.965878 -0.28096,-3.791363 -0.421341,-5.476301c-0.280773,-1.684944 -0.421165,-2.808348 -0.702114,-3.93174c-0.140385,-0.561541 -0.140385,-0.842476 -0.280777,-0.982859c0,-0.280767 -0.280895,-0.421326 -0.702053,-0.421326l-0.140392,0l-4.072075,0.561699c-0.281017,0 -0.561726,0.280933 -0.561726,0.561708l0,0.140388l0.280708,1.123413c0.281017,1.123228 0.421345,2.527397 0.702114,4.212502s0.280949,3.370054 0.280949,5.195366c0,3.370052 -0.280949,5.757072 -0.983067,7.442184c-0.702053,1.544533 -2.106232,2.667934 -4.071968,3.089085" id="svg_1"/>
 </g>
</svg>