<svg xmlns="http://www.w3.org/2000/svg" xmlns:xlink="http://www.w3.org/1999/xlink" viewBox="-1116 1660 46 50" fill="#00BEC1">
    <path d="M-1116,1686.40002C-1116,1674.20002 -1105.9,1664.40002 -1093.4,1664.40002C-1080.9,1664.40002 -1070.8,1674.20002 -1070.8,1686.40002S-1080.9,1708.40002 -1093.4,1708.40002C-1105.9,1708.40002 -1116,1698.60002 -1116,1686.40002zM-1093.9,1693.90002C-1096.1,1693.90002 -1097.9,1693.70002 -1099.1,1693.50002C-1100.5,1693.20002 -1101.4,1692.40002 -1102,1691.30002C-1102.5,1690.20002 -1102.8,1688.40002 -1102.7,1686.00002C-1102.7,1684.70002 -1102.6,1683.50002 -1102.5,1682.30002C-1102.3,1681.10002 -1102.2,1680.10002 -1102,1679.30002L-1101.8,1678.50002L-1101.8,1678.40002C-1101.8,1678.20002 -1102,1678.00002 -1102.2,1678.00002L-1105.1,1677.60002L-1105.2,1677.60002C-1105.4,1677.60002 -1105.6,1677.80002 -1105.7,1677.90002C-1105.7,1678.10002 -1105.8,1678.20002 -1105.9,1678.60002C-1106.1,1679.50002 -1106.2,1680.30002 -1106.4,1681.40002C-1106.6,1682.60002 -1106.7,1683.90002 -1106.7,1685.30002C-1106.7,1685.30002 -1106.8,1685.60002 -1106.7,1688.00002S-1106.2,1692.30002 -1105.4,1693.80002C-1104.6,1695.20002 -1103.3,1696.30002 -1101.4,1696.90002C-1099.5,1697.50002 -1096.9,1697.80002 -1093.6,1697.80002L-1093.2,1697.80002C-1089.9,1697.80002 -1087.3,1697.50002 -1085.4,1696.90002C-1083.5,1696.30002 -1082.2,1695.20002 -1081.4,1693.80002C-1080.6,1692.30002 -1080.2,1690.40002 -1080.1,1688.00002S-1080.1,1685.30002 -1080.1,1685.30002C-1080.1,1683.90002 -1080.3,1682.60002 -1080.4,1681.40002C-1080.6,1680.20002 -1080.7,1679.40002 -1080.9,1678.60002C-1081,1678.20002 -1081,1678.00002 -1081.1,1677.90002C-1081.1,1677.70002 -1081.3,1677.60002 -1081.6,1677.60002L-1081.7,1677.60002L-1084.6,1678.00002C-1084.8,1678.00002 -1085,1678.20002 -1085,1678.40002L-1085,1678.50002L-1084.8,1679.30002C-1084.6,1680.10002 -1084.5,1681.10002 -1084.3,1682.30002S-1084.1,1684.70002 -1084.1,1686.00002C-1084.1,1688.40002 -1084.3,1690.10002 -1084.8,1691.30002C-1085.3,1692.40002 -1086.3,1693.20002 -1087.7,1693.50002"></path>
</svg>
